<svg width="844" height="90" viewBox="0 0 844 90" fill="none" xmlns="http://www.w3.org/2000/svg">
<path d="M785.18 0.364258H1V88.934H843V29.8875L785.18 0.364258Z" fill="#534686" stroke="url(#paint0_linear_468_132)" stroke-width="0.686287"/>
<path d="M57.312 52L52.008 45.664H55.776L60.552 51.328V52H57.312ZM43.344 52V34.744H57.384C57.976 34.744 58.512 34.896 58.992 35.2C59.488 35.488 59.88 35.88 60.168 36.376C60.472 36.856 60.624 37.392 60.624 37.984V42.736C60.624 43.312 60.472 43.848 60.168 44.344C59.88 44.84 59.488 45.232 58.992 45.52C58.512 45.808 57.976 45.952 57.384 45.952L46.224 45.976V52H43.344ZM46.656 43.048H57.288C57.4 43.048 57.496 43.008 57.576 42.928C57.672 42.848 57.72 42.744 57.72 42.616V38.056C57.72 37.944 57.672 37.848 57.576 37.768C57.496 37.672 57.4 37.624 57.288 37.624H46.656C46.544 37.624 46.44 37.672 46.344 37.768C46.264 37.848 46.224 37.944 46.224 38.056V42.616C46.224 42.744 46.264 42.848 46.344 42.928C46.44 43.008 46.544 43.048 46.656 43.048ZM66.2447 52C65.6527 52 65.1167 51.856 64.6367 51.568C64.1567 51.264 63.7647 50.872 63.4607 50.392C63.1727 49.912 63.0287 49.376 63.0287 48.784V41.296C63.0287 40.704 63.1727 40.168 63.4607 39.688C63.7647 39.208 64.1567 38.824 64.6367 38.536C65.1167 38.232 65.6527 38.08 66.2447 38.08H73.9487C74.5567 38.08 75.1007 38.232 75.5807 38.536C76.0607 38.824 76.4447 39.208 76.7327 39.688C77.0207 40.168 77.1647 40.704 77.1647 41.296V46.48H65.8847V48.688C65.8847 48.816 65.9247 48.928 66.0047 49.024C66.1007 49.104 66.2127 49.144 66.3407 49.144H77.1647V52H66.2447ZM65.8847 43.864H74.3087V41.392C74.3087 41.264 74.2607 41.16 74.1647 41.08C74.0847 40.984 73.9807 40.936 73.8527 40.936H66.3407C66.2127 40.936 66.1007 40.984 66.0047 41.08C65.9247 41.16 65.8847 41.264 65.8847 41.392V43.864ZM82.8859 52C82.2939 52 81.7499 51.856 81.2539 51.568C80.7739 51.264 80.3899 50.872 80.1019 50.392C79.8139 49.912 79.6699 49.376 79.6699 48.784V43.6H90.9499V41.392C90.9499 41.264 90.9019 41.16 90.8059 41.08C90.7259 40.984 90.6219 40.936 90.4939 40.936H79.6699V38.08H90.5899C91.1979 38.08 91.7419 38.232 92.2219 38.536C92.7019 38.824 93.0859 39.208 93.3739 39.688C93.6619 40.168 93.8059 40.704 93.8059 41.296V52H82.8859ZM82.9819 49.144H90.9499V46.216H82.5259V48.688C82.5259 48.816 82.5659 48.928 82.6459 49.024C82.7419 49.104 82.8539 49.144 82.9819 49.144ZM99.1046 52C98.5126 52 97.9766 51.856 97.4966 51.568C97.0166 51.264 96.6246 50.872 96.3206 50.392C96.0326 49.912 95.8886 49.376 95.8886 48.784V33.496H98.7686V48.688C98.7686 48.816 98.8086 48.928 98.8886 49.024C98.9846 49.104 99.0886 49.144 99.2006 49.144H101.793V52H99.1046ZM103.951 52V38.08H106.807V52H103.951ZM103.951 36.4V33.52H106.807V36.4H103.951ZM112.699 52C112.107 52 111.563 51.856 111.067 51.568C110.587 51.264 110.203 50.872 109.915 50.392C109.627 49.912 109.483 49.376 109.483 48.784V33.736H112.339V38.08H117.907V40.936H112.339V48.688C112.339 48.816 112.379 48.928 112.459 49.024C112.555 49.104 112.667 49.144 112.795 49.144H117.907V52H112.699ZM119.865 52V38.08H122.721V52H119.865ZM119.865 36.4V33.52H122.721V36.4H119.865ZM128.424 52C127.832 52 127.296 51.856 126.816 51.568C126.336 51.264 125.944 50.872 125.64 50.392C125.352 49.912 125.208 49.376 125.208 48.784V41.296C125.208 40.704 125.352 40.168 125.64 39.688C125.944 39.208 126.336 38.824 126.816 38.536C127.296 38.232 127.832 38.08 128.424 38.08H136.128C136.736 38.08 137.28 38.232 137.76 38.536C138.24 38.824 138.624 39.208 138.912 39.688C139.2 40.168 139.344 40.704 139.344 41.296V46.48H128.064V48.688C128.064 48.816 128.104 48.928 128.184 49.024C128.28 49.104 128.392 49.144 128.52 49.144H139.344V52H128.424ZM128.064 43.864H136.488V41.392C136.488 41.264 136.44 41.16 136.344 41.08C136.264 40.984 136.16 40.936 136.032 40.936H128.52C128.392 40.936 128.28 40.984 128.184 41.08C128.104 41.16 128.064 41.264 128.064 41.392V43.864ZM144.852 52C144.26 52 143.724 51.856 143.244 51.568C142.764 51.264 142.372 50.872 142.068 50.392C141.78 49.912 141.636 49.376 141.636 48.784V48.328H144.492V48.688C144.492 48.816 144.532 48.928 144.612 49.024C144.708 49.104 144.82 49.144 144.948 49.144H152.46C152.588 49.144 152.692 49.104 152.772 49.024C152.868 48.928 152.916 48.816 152.916 48.688V46.912C152.916 46.8 152.868 46.704 152.772 46.624C152.692 46.528 152.588 46.48 152.46 46.48H144.852C144.26 46.48 143.724 46.336 143.244 46.048C142.764 45.744 142.372 45.352 142.068 44.872C141.78 44.392 141.636 43.856 141.636 43.264V41.296C141.636 40.704 141.78 40.168 142.068 39.688C142.372 39.208 142.764 38.824 143.244 38.536C143.724 38.232 144.26 38.08 144.852 38.08H152.556C153.164 38.08 153.708 38.232 154.188 38.536C154.668 38.824 155.052 39.208 155.34 39.688C155.644 40.168 155.796 40.704 155.796 41.296V41.752H152.916V41.392C152.916 41.264 152.868 41.16 152.772 41.08C152.692 40.984 152.588 40.936 152.46 40.936H144.948C144.82 40.936 144.708 40.984 144.612 41.08C144.532 41.16 144.492 41.264 144.492 41.392V43.168C144.492 43.28 144.532 43.384 144.612 43.48C144.708 43.56 144.82 43.6 144.948 43.6H152.556C153.164 43.6 153.708 43.752 154.188 44.056C154.668 44.344 155.052 44.728 155.34 45.208C155.644 45.688 155.796 46.224 155.796 46.816V48.784C155.796 49.376 155.644 49.912 155.34 50.392C155.052 50.872 154.668 51.264 154.188 51.568C153.708 51.856 153.164 52 152.556 52H144.852ZM168.526 52C167.934 52 167.398 51.856 166.918 51.568C166.438 51.264 166.046 50.872 165.742 50.392C165.454 49.912 165.31 49.376 165.31 48.784V41.296C165.31 40.704 165.454 40.168 165.742 39.688C166.046 39.208 166.438 38.824 166.918 38.536C167.398 38.232 167.934 38.08 168.526 38.08H179.422V40.936H168.622C168.494 40.936 168.382 40.984 168.286 41.08C168.206 41.16 168.166 41.264 168.166 41.392V48.688C168.166 48.816 168.206 48.928 168.286 49.024C168.382 49.104 168.494 49.144 168.622 49.144H179.446V52H168.526ZM185.12 52C184.528 52 183.984 51.856 183.488 51.568C183.008 51.264 182.624 50.872 182.336 50.392C182.048 49.912 181.904 49.376 181.904 48.784V43.6H193.184V41.392C193.184 41.264 193.136 41.16 193.04 41.08C192.96 40.984 192.856 40.936 192.728 40.936H181.904V38.08H192.824C193.432 38.08 193.976 38.232 194.456 38.536C194.936 38.824 195.32 39.208 195.608 39.688C195.896 40.168 196.04 40.704 196.04 41.296V52H185.12ZM185.216 49.144H193.184V46.216H184.76V48.688C184.76 48.816 184.8 48.928 184.88 49.024C184.976 49.104 185.088 49.144 185.216 49.144ZM198.17 52V41.296C198.17 40.704 198.314 40.168 198.602 39.688C198.906 39.208 199.298 38.824 199.778 38.536C200.274 38.232 200.81 38.08 201.386 38.08H209.138V40.936H201.482C201.354 40.936 201.242 40.984 201.146 41.08C201.066 41.16 201.026 41.264 201.026 41.392V52H198.17ZM213.534 52C212.942 52 212.398 51.856 211.902 51.568C211.422 51.264 211.038 50.872 210.75 50.392C210.462 49.912 210.318 49.376 210.318 48.784V41.296C210.318 40.704 210.462 40.168 210.75 39.688C211.038 39.208 211.422 38.824 211.902 38.536C212.398 38.232 212.942 38.08 213.534 38.08H221.622V33.52H224.478V52H213.534ZM213.654 49.144H221.166C221.294 49.144 221.398 49.104 221.478 49.024C221.574 48.928 221.622 48.816 221.622 48.688V41.392C221.622 41.264 221.574 41.16 221.478 41.08C221.398 40.984 221.294 40.936 221.166 40.936H213.654C213.526 40.936 213.414 40.984 213.318 41.08C213.238 41.16 213.198 41.264 213.198 41.392V48.688C213.198 48.816 213.238 48.928 213.318 49.024C213.414 49.104 213.526 49.144 213.654 49.144ZM230.141 52C229.549 52 229.013 51.856 228.533 51.568C228.053 51.264 227.661 50.872 227.357 50.392C227.069 49.912 226.925 49.376 226.925 48.784V48.328H229.781V48.688C229.781 48.816 229.821 48.928 229.901 49.024C229.997 49.104 230.109 49.144 230.237 49.144H237.749C237.877 49.144 237.981 49.104 238.061 49.024C238.157 48.928 238.205 48.816 238.205 48.688V46.912C238.205 46.8 238.157 46.704 238.061 46.624C237.981 46.528 237.877 46.48 237.749 46.48H230.141C229.549 46.48 229.013 46.336 228.533 46.048C228.053 45.744 227.661 45.352 227.357 44.872C227.069 44.392 226.925 43.856 226.925 43.264V41.296C226.925 40.704 227.069 40.168 227.357 39.688C227.661 39.208 228.053 38.824 228.533 38.536C229.013 38.232 229.549 38.08 230.141 38.08H237.845C238.453 38.08 238.997 38.232 239.477 38.536C239.957 38.824 240.341 39.208 240.629 39.688C240.933 40.168 241.085 40.704 241.085 41.296V41.752H238.205V41.392C238.205 41.264 238.157 41.16 238.061 41.08C237.981 40.984 237.877 40.936 237.749 40.936H230.237C230.109 40.936 229.997 40.984 229.901 41.08C229.821 41.16 229.781 41.264 229.781 41.392V43.168C229.781 43.28 229.821 43.384 229.901 43.48C229.997 43.56 230.109 43.6 230.237 43.6H237.845C238.453 43.6 238.997 43.752 239.477 44.056C239.957 44.344 240.341 44.728 240.629 45.208C240.933 45.688 241.085 46.224 241.085 46.816V48.784C241.085 49.376 240.933 49.912 240.629 50.392C240.341 50.872 239.957 51.264 239.477 51.568C238.997 51.856 238.453 52 237.845 52H230.141Z" fill="white"/>
<defs>
<linearGradient id="paint0_linear_468_132" x1="421.616" y1="-12.0072" x2="421.794" y2="88.9343" gradientUnits="userSpaceOnUse">
<stop stop-color="white"/>
<stop offset="1" stop-color="#AA14F0"/>
</linearGradient>
</defs>
</svg>
